<svg width="1396" height="283" viewBox="0 0 1396 283" fill="none" xmlns="http://www.w3.org/2000/svg">
<path d="M141.006 17.0157L141.005 43.4362C133.406 44.9985 126.73 47.7326 120.977 51.6387C115.224 55.4738 110.394 60.1611 106.488 65.7007C102.51 71.1694 99.5271 77.2417 97.5383 83.9178C95.5495 90.5939 94.5549 97.5541 94.5547 104.798C94.5543 118.009 97.892 129.976 104.568 140.701C111.244 151.354 121.08 159.842 134.077 166.163C147.074 172.414 163.018 175.539 181.91 175.54C200.802 175.54 216.747 172.416 229.745 166.166C242.742 159.846 252.579 151.359 259.255 140.706C265.932 129.981 269.27 118.014 269.271 104.804C269.271 97.5595 268.277 90.5993 266.288 83.9231C264.3 77.2469 261.353 71.1743 257.447 65.7055C253.469 60.1656 248.605 55.4779 242.852 51.6425C237.028 47.7361 230.352 45.0015 222.824 43.4387L222.824 17.0183C233.975 19.0073 243.954 22.6298 252.76 27.8857C261.567 33.1417 269.06 39.676 275.238 47.4887C281.346 55.3014 285.998 64.0728 289.193 73.803C292.389 83.4622 293.987 93.7961 293.987 104.805C293.986 123.413 289.44 139.961 280.349 154.449C271.257 168.937 258.331 180.336 241.569 188.645C224.808 196.954 204.921 201.109 181.91 201.108C158.898 201.107 139.012 196.952 122.251 188.642C105.49 180.331 92.5641 168.932 83.4736 154.443C74.3831 139.954 69.8382 123.406 69.8388 104.798C69.8391 93.7891 71.4375 83.4553 74.6338 73.7964C77.8301 64.0663 82.5179 55.2952 88.6971 47.4829C94.8053 39.6706 102.263 33.1367 111.07 27.8813C119.806 22.6259 129.785 19.004 141.006 17.0157Z" fill="#00FF5E"/>
<path d="M222.003 265.002L222.004 238.581C229.604 237.019 236.28 234.285 242.033 230.379C247.786 226.544 252.616 221.856 256.522 216.317C260.499 210.848 263.483 204.776 265.471 198.1C267.46 191.424 268.455 184.464 268.455 177.219C268.455 164.009 265.118 152.042 258.442 141.317C251.766 130.663 241.93 122.176 228.933 115.854C215.936 109.604 199.991 106.478 181.099 106.478C162.207 106.477 146.263 109.602 133.265 115.851C120.268 122.172 110.431 130.659 103.754 141.312C97.078 152.036 93.7396 164.004 93.7392 177.214C93.7389 184.458 94.733 191.418 96.7215 198.095C98.7099 204.771 101.657 210.843 105.563 216.312C109.54 221.852 114.405 226.54 120.158 230.375C125.982 234.282 132.658 237.016 140.186 238.579L140.185 264.999C129.035 263.01 119.056 259.388 110.25 254.132C101.443 248.876 93.9502 242.342 87.7715 234.529C81.6638 226.716 77.012 217.945 73.8163 208.215C70.6206 198.555 69.0229 188.221 69.0233 177.213C69.0238 158.605 73.5698 142.057 82.6612 127.569C91.7525 113.08 104.679 101.681 121.441 93.3723C138.202 85.0631 158.089 80.9089 181.1 80.9096C204.111 80.9104 223.998 85.0658 240.759 93.376C257.52 101.686 270.446 113.086 279.536 127.575C288.627 142.064 293.172 158.612 293.171 177.22C293.171 188.228 291.572 198.562 288.376 208.221C285.18 217.951 280.492 226.722 274.313 234.535C268.204 242.347 260.747 248.881 251.94 254.136C243.204 259.392 233.225 263.014 222.003 265.002Z" fill="#0A49D2"/>
<path d="M508.128 85.9259V210.006H487.824V85.9259H508.128ZM429.168 85.9259V210.006H408.864V85.9259H429.168ZM498.164 138.566V155.862H419.016V138.566H498.164ZM592.157 149.47C592.157 143.329 590.527 138.503 587.269 134.994C584.01 131.485 579.498 129.73 573.733 129.73C568.218 129.73 563.518 131.046 559.633 133.678C555.873 136.31 553.115 140.571 551.361 146.462L534.441 139.882C536.697 132.111 541.209 125.907 547.977 121.27C554.745 116.507 563.643 114.126 574.673 114.126C582.067 114.126 588.585 115.379 594.225 117.886C599.99 120.267 604.439 123.965 607.573 128.978C610.831 133.991 612.461 140.195 612.461 147.59V189.326C612.461 194.339 614.717 196.846 619.229 196.846C620.231 196.846 621.297 196.783 622.425 196.658C623.553 196.407 624.555 196.157 625.433 195.906L624.305 209.254C623.051 209.881 621.485 210.382 619.605 210.758C617.85 211.259 615.782 211.51 613.401 211.51C609.641 211.51 606.194 210.821 603.061 209.442C599.927 207.938 597.483 205.745 595.729 202.862C593.974 199.854 593.097 196.094 593.097 191.582V189.514L596.481 189.326C595.603 194.339 593.473 198.538 590.089 201.922C586.83 205.306 582.882 207.813 578.245 209.442C573.607 211.071 568.845 211.886 563.957 211.886C555.309 211.886 548.102 209.755 542.337 205.494C536.697 201.233 533.877 194.903 533.877 186.506C533.877 179.738 535.945 174.098 540.081 169.586C544.342 164.949 550.734 161.753 559.257 159.998L594.789 152.666V166.014L569.597 171.466C564.458 172.469 560.573 173.973 557.941 175.978C555.434 177.983 554.181 180.929 554.181 184.814C554.181 188.574 555.497 191.519 558.129 193.65C560.761 195.781 564.395 196.846 569.033 196.846C571.915 196.846 574.735 196.47 577.493 195.718C580.25 194.841 582.694 193.525 584.825 191.77C587.081 190.015 588.835 187.822 590.089 185.19C591.467 182.433 592.157 179.174 592.157 175.414V149.47ZM661.151 74.0819V183.31C661.151 187.571 661.778 190.767 663.031 192.898C664.41 195.029 666.916 196.094 670.551 196.094C672.556 196.094 674.248 195.969 675.627 195.718C677.006 195.342 678.698 194.778 680.703 194.026L678.635 208.502C676.88 209.505 674.562 210.319 671.679 210.946C668.922 211.573 666.29 211.886 663.783 211.886C655.01 211.886 648.994 209.505 645.735 204.742C642.476 199.854 640.847 193.337 640.847 185.19V74.0819H661.151ZM749.496 149.47C749.496 143.329 747.867 138.503 744.608 134.994C741.35 131.485 736.838 129.73 731.072 129.73C725.558 129.73 720.858 131.046 716.972 133.678C713.212 136.31 710.455 140.571 708.7 146.462L691.78 139.882C694.036 132.111 698.548 125.907 705.316 121.27C712.084 116.507 720.983 114.126 732.012 114.126C739.407 114.126 745.924 115.379 751.564 117.886C757.33 120.267 761.779 123.965 764.912 128.978C768.171 133.991 769.8 140.195 769.8 147.59V189.326C769.8 194.339 772.056 196.846 776.568 196.846C777.571 196.846 778.636 196.783 779.764 196.658C780.892 196.407 781.895 196.157 782.772 195.906L781.644 209.254C780.391 209.881 778.824 210.382 776.944 210.758C775.19 211.259 773.122 211.51 770.74 211.51C766.98 211.51 763.534 210.821 760.4 209.442C757.267 207.938 754.823 205.745 753.068 202.862C751.314 199.854 750.436 196.094 750.436 191.582V189.514L753.82 189.326C752.943 194.339 750.812 198.538 747.428 201.922C744.17 205.306 740.222 207.813 735.584 209.442C730.947 211.071 726.184 211.886 721.296 211.886C712.648 211.886 705.442 209.755 699.676 205.494C694.036 201.233 691.216 194.903 691.216 186.506C691.216 179.738 693.284 174.098 697.42 169.586C701.682 164.949 708.074 161.753 716.596 159.998L752.128 152.666V166.014L726.936 171.466C721.798 172.469 717.912 173.973 715.28 175.978C712.774 177.983 711.52 180.929 711.52 184.814C711.52 188.574 712.836 191.519 715.468 193.65C718.1 195.781 721.735 196.846 726.372 196.846C729.255 196.846 732.075 196.47 734.832 195.718C737.59 194.841 740.034 193.525 742.164 191.77C744.42 190.015 746.175 187.822 747.428 185.19C748.807 182.433 749.496 179.174 749.496 175.414V149.47ZM818.491 74.0819V183.31C818.491 187.571 819.118 190.767 820.371 192.898C821.75 195.029 824.256 196.094 827.891 196.094C829.896 196.094 831.588 195.969 832.967 195.718C834.346 195.342 836.038 194.778 838.043 194.026L835.975 208.502C834.22 209.505 831.902 210.319 829.019 210.946C826.262 211.573 823.63 211.886 821.123 211.886C812.35 211.886 806.334 209.505 803.075 204.742C799.816 199.854 798.187 193.337 798.187 185.19V74.0819H818.491ZM1010.1 176.918C1006.46 188.323 1000.19 197.034 991.295 203.05C982.397 208.941 971.994 211.886 960.087 211.886C948.431 211.886 938.342 209.317 929.819 204.178C921.297 199.039 914.717 191.707 910.079 182.182C905.442 172.531 903.123 161.126 903.123 147.966C903.123 134.806 905.442 123.463 910.079 113.938C914.717 104.287 921.297 96.8925 929.819 91.7539C938.342 86.6152 948.306 84.0459 959.711 84.0459C967.858 84.0459 975.127 85.2365 981.519 87.6179C988.037 89.8739 993.551 93.3205 998.063 97.9579C1002.58 102.47 1005.96 108.235 1008.22 115.254L989.603 123.338C987.347 115.693 983.838 110.115 979.075 106.606C974.313 103.097 968.171 101.342 960.651 101.342C953.382 101.342 946.99 103.159 941.475 106.794C935.961 110.429 931.699 115.755 928.691 122.774C925.683 129.667 924.179 138.065 924.179 147.966C924.179 157.742 925.621 166.139 928.503 173.158C931.386 180.051 935.522 185.378 940.911 189.138C946.426 192.773 952.943 194.59 960.463 194.59C967.858 194.59 974.25 192.585 979.639 188.574C985.029 184.563 988.726 178.547 990.731 170.526L1010.1 176.918ZM1032.29 210.006V74.0819H1052.59V131.986C1055.47 125.97 1059.48 121.521 1064.62 118.638C1069.89 115.63 1075.84 114.126 1082.48 114.126C1088.87 114.126 1094.58 115.442 1099.59 118.074C1104.6 120.581 1108.61 124.403 1111.62 129.542C1114.63 134.681 1116.13 141.135 1116.13 148.906V210.006H1095.83V154.922C1095.83 145.898 1093.95 139.569 1090.19 135.934C1086.56 132.299 1081.98 130.482 1076.47 130.482C1072.58 130.482 1068.76 131.485 1065 133.49C1061.36 135.495 1058.36 138.629 1055.97 142.89C1053.72 147.151 1052.59 152.791 1052.59 159.81V210.006H1032.29ZM1197.83 149.47C1197.83 143.329 1196.2 138.503 1192.94 134.994C1189.69 131.485 1185.17 129.73 1179.41 129.73C1173.89 129.73 1169.19 131.046 1165.31 133.678C1161.55 136.31 1158.79 140.571 1157.04 146.462L1140.12 139.882C1142.37 132.111 1146.88 125.907 1153.65 121.27C1160.42 116.507 1169.32 114.126 1180.35 114.126C1187.74 114.126 1194.26 115.379 1199.9 117.886C1205.67 120.267 1210.12 123.965 1213.25 128.978C1216.51 133.991 1218.14 140.195 1218.14 147.59V189.326C1218.14 194.339 1220.39 196.846 1224.9 196.846C1225.91 196.846 1226.97 196.783 1228.1 196.658C1229.23 196.407 1230.23 196.157 1231.11 195.906L1229.98 209.254C1228.73 209.881 1227.16 210.382 1225.28 210.758C1223.53 211.259 1221.46 211.51 1219.08 211.51C1215.32 211.51 1211.87 210.821 1208.74 209.442C1205.6 207.938 1203.16 205.745 1201.4 202.862C1199.65 199.854 1198.77 196.094 1198.77 191.582V189.514L1202.16 189.326C1201.28 194.339 1199.15 198.538 1195.76 201.922C1192.51 205.306 1188.56 207.813 1183.92 209.442C1179.28 211.071 1174.52 211.886 1169.63 211.886C1160.98 211.886 1153.78 209.755 1148.01 205.494C1142.37 201.233 1139.55 194.903 1139.55 186.506C1139.55 179.738 1141.62 174.098 1145.76 169.586C1150.02 164.949 1156.41 161.753 1164.93 159.998L1200.46 152.666V166.014L1175.27 171.466C1170.13 172.469 1166.25 173.973 1163.62 175.978C1161.11 177.983 1159.86 180.929 1159.86 184.814C1159.86 188.574 1161.17 191.519 1163.8 193.65C1166.44 195.781 1170.07 196.846 1174.71 196.846C1177.59 196.846 1180.41 196.47 1183.17 195.718C1185.93 194.841 1188.37 193.525 1190.5 191.77C1192.76 190.015 1194.51 187.822 1195.76 185.19C1197.14 182.433 1197.83 179.174 1197.83 175.414V149.47ZM1267.58 116.006V210.006H1247.27V116.006H1267.58ZM1257.99 100.59C1253.48 100.59 1249.97 99.5245 1247.46 97.3939C1245.08 95.1379 1243.89 91.9419 1243.89 87.8059C1243.89 83.6699 1245.08 80.5365 1247.46 78.4059C1249.97 76.1498 1253.48 75.0218 1257.99 75.0218C1262.5 75.0218 1265.95 76.1498 1268.33 78.4059C1270.71 80.5365 1271.9 83.6699 1271.9 87.8059C1271.9 91.9419 1270.71 95.1379 1268.33 97.3939C1265.95 99.5245 1262.5 100.59 1257.99 100.59ZM1297.76 210.006V116.006H1315.62L1316.94 141.574L1314.31 139.13C1316.69 130.607 1320.89 124.341 1326.9 120.33C1332.92 116.194 1339.94 114.126 1347.96 114.126C1354.35 114.126 1360.05 115.442 1365.07 118.074C1370.08 120.581 1374.09 124.403 1377.1 129.542C1380.11 134.681 1381.61 141.135 1381.61 148.906V210.006H1361.31V154.922C1361.31 146.023 1359.43 139.757 1355.67 136.122C1352.03 132.487 1347.46 130.67 1341.94 130.67C1338.06 130.67 1334.24 131.673 1330.48 133.678C1326.84 135.558 1323.83 138.629 1321.45 142.89C1319.2 147.151 1318.07 152.729 1318.07 159.622V210.006H1297.76Z" fill="#353535"/>
</svg>
